HIERARCHY
ROOT Hips
{
	OFFSET 0.000000 0.000000 0.000000
	CHANNELS 6 Xposition Yposition Zposition Zrotation Yrotation Xrotation 
	JOINT LHipJoint
	{
		OFFSET 0.000000 0.000000 0.000000
		CHANNELS 3 Zrotation Yrotation Xrotation
		JOINT LeftUpLeg
		{
			OFFSET 1.363060 -1.794630 0.839290
			CHANNELS 3 Zrotation Yrotation Xrotation
			JOINT LeftLeg
			{
				OFFSET 2.448110 -6.726130 0.000000
				CHANNELS 3 Zrotation Yrotation Xrotation
				JOINT LeftFoot
				{
					OFFSET 2.562200 -7.039590 0.000000
					CHANNELS 3 Zrotation Yrotation Xrotation
					JOINT LeftToeBase
					{
						OFFSET 0.157640 -0.433110 2.322550
						CHANNELS 3 Zrotation Yrotation Xrotation
						End Site
						{
							OFFSET 0.000000 0.000000 0.000000
						}
					}
				}
			}
		}
	}
	JOINT RHipJoint
	{
		OFFSET 0.000000 0.000000 0.000000
		CHANNELS 3 Zrotation Yrotation Xrotation
		JOINT RightUpLeg
		{
			OFFSET -1.305520 -1.794630 0.839290
			CHANNELS 3 Zrotation Yrotation Xrotation
			JOINT RightLeg
			{
				OFFSET -2.542530 -6.985550 0.000000
				CHANNELS 3 Zrotation Yrotation Xrotation
				JOINT RightFoot
				{
					OFFSET -2.568260 -7.056230 0.000000
					CHANNELS 3 Zrotation Yrotation Xrotation
					JOINT RightToeBase
					{
						OFFSET -0.164730 -0.452590 2.363150
						CHANNELS 3 Zrotation Yrotation Xrotation
						End Site
						{
							OFFSET 0.000000 0.000000 0.000000
						}
					}
				}
			}
		}
	}
	JOINT LowerBack
	{
		OFFSET 0.000000 0.000000 0.000000
		CHANNELS 3 Zrotation Yrotation Xrotation
		JOINT Spine
		{
			OFFSET 0.028270 2.035590 -0.193380
			CHANNELS 3 Zrotation Yrotation Xrotation
			JOINT Spine1
			{
				OFFSET 0.056720 2.048850 -0.042750
				CHANNELS 3 Zrotation Yrotation Xrotation
				JOINT Neck
				{
					OFFSET 0.000000 0.000000 0.000000
					CHANNELS 3 Zrotation Yrotation Xrotation
					JOINT Neck1
					{
						OFFSET -0.054170 1.746240 0.172020
						CHANNELS 3 Zrotation Yrotation Xrotation
						JOINT Head
						{
							OFFSET 0.104070 1.761360 -0.123970
							CHANNELS 3 Zrotation Yrotation Xrotation
							End Site
							{
								OFFSET 0.000000 0.000000 0.000000
							}
						}
					}
				}
				JOINT LeftShoulder
				{
					OFFSET 0.000000 0.000000 0.000000
					CHANNELS 3 Zrotation Yrotation Xrotation
					JOINT LeftArm
					{
						OFFSET 3.362410 1.200890 -0.311210
						CHANNELS 3 Zrotation Yrotation Xrotation
						JOINT LeftForeArm
						{
							OFFSET 4.983000 -0.000000 -0.000000
							CHANNELS 3 Zrotation Yrotation Xrotation
							JOINT LeftHand
							{
								OFFSET 3.483560 -0.000000 -0.000000
								CHANNELS 3 Zrotation Yrotation Xrotation
								JOINT LeftFingerBase
								{
									OFFSET 0.000000 0.000000 0.000000
									CHANNELS 3 Zrotation Yrotation Xrotation
									JOINT LeftHandIndex1
									{
										OFFSET 0.715260 -0.000000 -0.000000
										CHANNELS 3 Zrotation Yrotation Xrotation
										End Site
										{
											OFFSET 0.000000 0.000000 0.000000
										}
									}
								}
								JOINT LThumb
								{
									OFFSET 0.000000 0.000000 0.000000
									CHANNELS 3 Zrotation Yrotation Xrotation
									End Site
									{
										OFFSET 0.000000 0.000000 0.000000
									}
								}
							}
						}
					}
				}
				JOINT RightShoulder
				{
					OFFSET 0.000000 0.000000 0.000000
					CHANNELS 3 Zrotation Yrotation Xrotation
					JOINT RightArm
					{
						OFFSET -3.136600 1.374050 -0.404650
						CHANNELS 3 Zrotation Yrotation Xrotation
						JOINT RightForeArm
						{
							OFFSET -5.241900 -0.000000 -0.000000
							CHANNELS 3 Zrotation Yrotation Xrotation
							JOINT RightHand
							{
								OFFSET -3.444170 -0.000000 -0.000000
								CHANNELS 3 Zrotation Yrotation Xrotation
								JOINT RightFingerBase
								{
									OFFSET 0.000000 0.000000 0.000000
									CHANNELS 3 Zrotation Yrotation Xrotation
									JOINT RightHandIndex1
									{
										OFFSET -0.622530 -0.000000 -0.000000
										CHANNELS 3 Zrotation Yrotation Xrotation
										End Site
										{
											OFFSET 0.000000 0.000000 0.000000
										}
									}
								}
								JOINT RThumb
								{
									OFFSET 0.000000 0.000000 0.000000
									CHANNELS 3 Zrotation Yrotation Xrotation
									End Site
									{
										OFFSET 0.000000 0.000000 0.000000
									}
								}
							}
						}
					}
				}
			}
		}
	}
}
MOTION
Frames: 11
Frame Time: 0.008333
49.116396 17.025621 5.645044 -177.251854 -0.276450 173.081977 2.836537 -1.978381 -1.659037 -17.621606 5.264153 11.625733 6.816399 16.364330 52.381045 0.328753 -2.287099 11.216888 0.445000 4.279900 11.865500 -7.296128 3.002313 -5.795860 32.283398 -0.438281 -0.505685 -1.739839 -10.250731 22.824849 -0.432778 -0.521077 -15.124141 -0.312700 -3.595100 9.940200 3.919146 -0.192754 13.747649 1.265480 0.843213 -1.338169 -1.670921 0.245618 3.134761 1.081450 1.667795 -19.938520 5.488755 0.873076 12.393363 -0.957100 0.848000 13.360000 6.661176 -0.636806 0.074485 -88.140157 9.931481 42.555827 10.873214 -20.181672 -2.153402 0.140092 0.349498 15.013092 0.184167 -14.852429 -0.036700 -7.125000 0.000000 0.000000 -18.364600 15.238000 13.621200 -6.158578 1.638050 1.797022 87.863406 -3.350253 26.679627 -18.318362 32.663448 -5.020376 0.195478 -2.680116 8.025713 -12.600583 -33.842732 6.910600 7.125000 0.000000 0.000000 21.384100 -60.442600 -8.274100 
49.147207 17.052133 5.507570 -176.868880 -0.331812 173.013915 2.780223 -1.996459 -1.612681 -16.893001 5.072076 10.001199 7.325978 16.722827 54.145452 0.265640 -1.817904 10.145500 0.547000 4.738100 13.163100 -7.280251 3.035588 -5.903142 32.688837 -1.289596 0.358486 -1.619456 -9.994277 22.027179 -0.442877 -0.198198 -15.189834 -0.277200 -3.386500 9.356800 4.419298 -0.168018 13.825643 1.285511 0.945504 -1.348942 -1.858714 0.302986 3.114470 1.226920 1.539181 -20.140724 5.465602 0.642901 12.403302 -1.022300 0.767400 13.426600 6.655583 -0.608419 0.140304 -91.522127 7.216825 18.361049 6.743695 -13.905644 -1.009879 0.373385 0.413873 40.060561 0.194346 -20.190979 -0.062100 -7.125000 0.000000 0.000000 -17.959900 9.989700 15.367700 -6.138209 1.602541 1.752013 87.663271 -2.736059 27.136606 -18.700675 33.075442 -5.156822 0.237459 -2.671068 7.523750 -12.422375 -33.722556 6.802800 7.125000 0.000000 0.000000 21.465600 -60.303600 -8.235900 
49.171160 17.078748 5.368765 -176.607217 -0.323992 172.916026 2.723564 -2.023748 -1.573124 -16.318862 5.032439 8.396697 7.769897 17.026819 55.655335 0.202201 -1.318953 9.023752 0.436800 4.240900 11.755400 -7.262149 3.083199 -6.027451 32.946655 -2.170356 1.322884 -1.499702 -9.713095 21.173443 -0.448229 0.088722 -15.179739 -0.192400 -2.824800 7.791300 4.720720 -0.148129 13.886261 1.324344 1.024231 -1.335715 -1.805650 0.335925 3.105281 1.087842 1.451924 -19.992622 5.537658 0.578329 12.263659 -0.949200 0.729300 13.286300 6.643876 -0.580461 0.160623 -91.532999 7.539101 15.945991 6.432748 -13.400164 -0.939528 0.429004 0.386490 43.647712 -0.828587 -20.677069 0.316100 -7.125000 0.000000 0.000000 -18.571000 9.558300 16.123800 -6.104687 1.544262 1.731049 87.197426 -2.070129 27.817517 -19.103984 33.479731 -5.296649 0.281482 -2.650093 6.929914 -12.240953 -33.610221 6.695600 7.125000 0.000000 0.000000 21.569800 -60.180900 -8.214700 
49.195830 17.107000 5.230574 -176.320212 -0.240032 172.838994 2.669408 -2.052136 -1.544029 -15.752838 5.050139 6.843296 8.167675 17.284180 56.978658 0.141719 -0.857390 7.883573 0.297500 3.507500 9.694900 -7.245190 3.125095 -6.142256 33.199024 -3.068734 2.184204 -1.394881 -9.463005 20.412270 -0.456195 0.528649 -15.146567 -0.137400 -2.388900 6.581800 4.982812 -0.092294 13.916493 1.370460 1.145568 -1.304592 -1.683047 0.388546 3.133354 0.822424 1.418990 -19.657276 5.513573 0.612312 12.212783 -0.897500 0.702500 13.145100 6.646836 -0.555119 0.193058 -92.095635 7.534187 9.566555 6.069874 -12.773709 -0.863392 0.491581 0.324921 50.895155 -1.647882 -20.827930 0.622900 -7.125000 0.000000 0.000000 -19.065900 9.440300 16.656000 -6.054416 1.463041 1.710815 86.643791 -1.402704 28.567584 -19.578360 33.956526 -5.474600 0.315364 -2.630190 6.092672 -12.377957 -33.714512 6.788100 7.125000 0.000000 0.000000 21.526900 -60.319700 -8.269000 
49.224082 17.135252 5.095556 -176.193098 -0.205503 172.723343 2.627559 -2.087759 -1.517449 -15.187795 5.247987 5.156121 8.562867 17.521799 58.264663 0.108826 -0.767767 6.988085 0.292200 3.475800 9.606400 -7.211428 3.185649 -6.261009 33.333296 -3.782035 3.199975 -1.288555 -9.190591 19.601183 -0.467297 0.776526 -15.255399 -0.111200 -2.149900 5.920000 5.142283 -0.030399 14.053449 1.356226 1.264435 -1.282920 -1.701090 0.452089 3.033224 0.359960 1.370417 -18.936182 5.734038 0.678554 11.979359 -0.643200 0.689600 12.780100 6.608581 -0.522868 0.211157 -91.649107 8.335936 10.989497 6.345413 -13.230028 -0.926890 0.525810 0.297253 50.131656 -3.427301 -20.969756 1.301000 -7.125000 0.000000 0.000000 -20.154400 9.364500 17.774000 -6.049019 1.404414 1.710908 86.275503 -0.774098 29.198189 -19.999028 34.412127 -5.644307 0.344288 -2.622118 5.436183 -12.475198 -33.899804 6.876100 7.125000 0.000000 0.000000 21.577700 -60.514900 -8.390500 
49.251515 17.163505 4.962074 -176.219072 -0.191127 172.591370 2.580897 -2.129503 -1.492143 -15.079951 5.100789 3.602434 8.902342 17.753485 59.401485 0.055080 -0.368175 5.784470 0.285100 3.433900 9.489100 -7.169409 3.262223 -6.371855 33.375245 -4.227378 4.363719 -1.187290 -8.904778 18.777369 -0.478449 0.842817 -15.432399 -0.113600 -2.173000 5.984000 5.153250 0.031339 14.174094 1.343186 1.366884 -1.286040 -1.795153 0.498603 3.091824 0.913365 1.267700 -19.786187 5.476225 0.353870 12.327903 -0.954100 0.601200 13.268100 6.613090 -0.494011 0.182012 -91.292716 8.595019 10.709307 6.299808 -13.153491 -0.918283 0.527273 0.275459 51.081790 -3.563686 -20.496043 1.325200 -7.125000 0.000000 0.000000 -20.276100 9.824800 17.695800 -6.001703 1.394801 1.663112 85.918478 -0.094615 29.868799 -20.456910 34.850398 -5.815278 0.383024 -2.604364 4.783451 -12.443002 -33.854634 6.856800 7.125000 0.000000 0.000000 21.578500 -60.480500 -8.373100 
49.280075 17.192883 4.827671 -176.274715 -0.120468 172.476573 2.534275 -2.171789 -1.468700 -14.863461 5.158613 2.018214 9.141792 17.911398 60.178235 0.016343 -0.075321 4.774001 0.168100 2.641400 7.282000 -7.124509 3.339420 -6.484496 33.262636 -4.857570 5.408167 -1.103944 -8.631886 18.002485 -0.486205 1.200171 -15.417507 -0.124600 -2.275500 6.267700 5.034315 0.117432 14.255835 1.339755 1.481453 -1.282163 -1.749181 0.543242 3.128547 1.283966 1.155149 -20.311711 5.297854 0.062798 12.560656 -1.182800 0.512800 13.581500 6.605691 -0.470055 0.153438 -90.528774 8.912709 15.854195 6.393091 -13.340486 -0.934112 0.512150 0.313216 46.401167 -3.673382 -20.707721 1.381500 -7.125000 0.000000 0.000000 -20.331300 9.626000 17.838500 -5.946152 1.375586 1.627190 85.438041 0.517855 30.696050 -20.989868 35.345225 -6.010298 0.423704 -2.573663 3.983478 -12.481320 -33.599336 6.833100 7.125000 0.000000 0.000000 21.350300 -60.277900 -8.176100 
49.313343 17.221647 4.693063 -176.278397 0.002125 172.362544 2.489924 -2.215419 -1.453586 -14.709142 5.126284 0.616772 9.291330 18.017436 60.664531 -0.009295 0.035058 3.684912 0.054700 1.508900 4.150400 -7.082842 3.412128 -6.599545 33.152697 -5.667500 6.387625 -1.018500 -8.340852 17.166879 -0.489165 1.654174 -15.286716 -0.115100 -2.187200 6.023400 4.896212 0.217064 14.366438 1.340258 1.610212 -1.266558 -1.591247 0.596956 3.006440 0.967655 1.215988 -19.557976 5.418051 0.230384 12.390195 -1.021400 0.544500 13.251800 6.590800 -0.451974 0.177500 -90.366583 9.500419 16.818729 6.497951 -13.528314 -0.957565 0.498297 0.332564 45.126805 -3.384546 -20.767555 1.275900 -7.125000 0.000000 0.000000 -20.148000 9.559900 17.682800 -5.922002 1.308221 1.622334 85.014742 1.154070 31.249091 -21.329047 35.666817 -6.132602 0.453745 -2.543701 3.805865 -12.190647 -33.256131 6.628300 7.125000 0.000000 0.000000 21.390400 -59.928900 -8.013100 
49.342414 17.248978 4.558659 -176.024517 0.193090 172.254940 2.453143 -2.245781 -1.441461 -14.260353 5.137036 -0.702716 9.380270 18.060498 60.920190 -0.006551 -0.180183 2.738564 0.018900 0.888100 2.441100 -7.056981 3.461716 -6.694214 33.465978 -6.252524 7.404268 -0.920938 -8.047040 16.298163 -0.490453 1.981976 -15.172066 -0.135400 -2.371800 6.534500 5.083913 0.281865 14.488168 1.352960 1.742129 -1.242100 -1.554486 0.660370 2.946939 0.655493 1.133933 -19.056328 5.621567 0.212864 12.189011 -0.824700 0.514100 12.970800 6.567534 -0.417902 0.194358 -90.162531 9.703760 16.578226 6.492040 -13.512755 -0.955725 0.484501 0.343915 44.772941 -2.918604 -20.649159 1.094700 -7.125000 0.000000 0.000000 -19.869000 9.658200 17.361200 -5.915437 1.252502 1.612761 84.714327 1.959775 31.683624 -21.552522 35.902151 -6.227781 0.461451 -2.531116 3.723192 -12.188831 -33.247091 6.629600 7.125000 0.000000 0.000000 21.391400 -59.932000 -8.015100 
49.361556 17.273341 4.425075 -175.763873 0.413988 172.128370 2.424107 -2.279106 -1.433036 -13.798666 5.157945 -2.014843 9.433037 18.076830 61.052704 0.023852 -0.707235 1.946198 0.043800 1.350400 3.713500 -7.023894 3.507301 -6.779386 33.801113 -6.702934 8.443267 -0.831344 -7.770020 15.484692 -0.491613 2.236729 -15.077643 -0.160500 -2.581400 7.115500 5.472137 0.351103 14.638789 1.334924 1.906200 -1.214460 -1.804759 0.759748 2.985779 0.828251 1.153539 -19.239192 5.501548 0.175576 12.301519 -0.919300 0.505800 13.103500 6.560657 -0.386205 0.174048 -89.024648 10.973713 20.380832 7.214681 -14.686706 -1.131932 0.448612 0.380391 40.341004 -2.483878 -20.602228 0.932500 -7.125000 0.000000 0.000000 -19.607600 9.692300 17.086900 -5.886260 1.206283 1.589069 84.448765 2.793868 32.307838 -21.877839 36.247607 -6.375185 0.465017 -2.527866 3.174143 -12.630998 -33.454739 6.892800 7.125000 0.000000 0.000000 21.105300 -60.215000 -8.045300 
49.379675 17.294735 4.293128 -175.847173 0.630214 171.977605 2.390256 -2.328393 -1.427366 -13.825442 5.088310 -3.245599 9.410035 18.096585 60.990611 0.034420 -0.844893 1.051601 0.047800 1.411200 3.881000 -6.969228 3.581646 -6.875849 33.706336 -7.143646 9.523388 -0.757238 -7.499773 14.727931 -0.496042 2.225815 -15.132016 -0.073400 -1.748300 4.810700 5.531259 0.481450 14.823380 1.297304 2.106873 -1.200896 -1.904987 0.866366 2.934020 0.689535 1.074149 -19.151660 5.399324 0.092009 12.372496 -0.945600 0.438200 13.128700 6.545529 -0.366378 0.193388 -89.553538 10.353837 15.145568 6.432711 -13.381065 -0.937619 0.459301 0.463171 46.262380 1.061432 -23.000368 -0.432800 -7.125000 0.000000 0.000000 -17.287700 7.173400 15.746900 -5.857035 1.166750 1.563038 83.956376 3.413455 32.939688 -22.286628 36.634676 -6.541427 0.487126 -2.503641 2.638713 -12.770173 -33.280355 6.933900 7.125000 0.000000 0.000000 20.838400 -60.102500 -7.882000 
